<?xml version="1.0" encoding="utf-8"?>
<!-- Generator: Adobe Illustrator 19.2.1, SVG Export Plug-In . SVG Version: 6.00 Build 0)  -->
<svg version="1.0" id="图层_1" xmlns="http://www.w3.org/2000/svg" xmlns:xlink="http://www.w3.org/1999/xlink" x="0px" y="0px"
	 viewBox="0 0 40 40" enable-background="new 0 0 40 40" xml:space="preserve">
<path fill="none" stroke="#F8C91C" stroke-width="2.5" stroke-linecap="round" stroke-linejoin="round" stroke-miterlimit="10" d="
	M15.5,31.8V18c0-2.6,2.1-4.7,4.7-4.7c1.3,0,2.5,0.5,3.3,1.4c0.9,0.9,1.4,2,1.4,3.4v13.8"/>
<g>
	<path fill="#F8C91C" d="M22,18.8v12.8c0,1-0.8,1.8-1.8,1.8h0c-1,0-1.8-0.8-1.8-1.8V18.8c0-1.2,0.8-2.1,1.8-2.1
		C21.2,16.7,22,17.6,22,18.8z"/>
</g>
<g>
	
		<line fill="none" stroke="#F8C91C" stroke-width="1.5" stroke-linecap="round" stroke-linejoin="round" stroke-miterlimit="10" x1="20.2" y1="3.1" x2="20.2" y2="9.2"/>
	
		<line fill="none" stroke="#F8C91C" stroke-width="1.5" stroke-linecap="round" stroke-linejoin="round" stroke-miterlimit="10" x1="10.4" y1="6.8" x2="13.9" y2="11.9"/>
	
		<line fill="none" stroke="#F8C91C" stroke-width="1.5" stroke-linecap="round" stroke-linejoin="round" stroke-miterlimit="10" x1="6.2" y1="18.1" x2="11.3" y2="18.1"/>
	
		<line fill="none" stroke="#F8C91C" stroke-width="1.5" stroke-linecap="round" stroke-linejoin="round" stroke-miterlimit="10" x1="34.2" y1="18.1" x2="29.1" y2="18.1"/>
	
		<line fill="none" stroke="#F8C91C" stroke-width="1.5" stroke-linecap="round" stroke-linejoin="round" stroke-miterlimit="10" x1="31.5" y1="6.8" x2="26.5" y2="11.9"/>
</g>
<path fill="#F8C91C" d="M20.5,38.8h-0.6c-2.5,0-4.4-2-4.4-4.4v0h9.5v0C24.9,36.8,22.9,38.8,20.5,38.8z"/>
</svg>
