<?xml version="1.0" encoding="utf-8"?>
<!-- Generator: Adobe Illustrator 19.2.1, SVG Export Plug-In . SVG Version: 6.00 Build 0)  -->
<svg version="1.0" id="图层_1" xmlns="http://www.w3.org/2000/svg" xmlns:xlink="http://www.w3.org/1999/xlink" x="0px" y="0px"
	 viewBox="0 0 40 40" enable-background="new 0 0 40 40" xml:space="preserve">
<g>
	<path fill="none" stroke="#27C24C" stroke-width="1.5" stroke-linecap="round" stroke-linejoin="round" stroke-miterlimit="10" d="
		M15.9,23.6l0-15.8c0-2.3,1.7-4.3,4-4.4c1.3-0.1,2.4,0.4,3.2,1.2c0.8,0.8,1.2,1.8,1.2,3v16c0,1,0.5,2,1.2,2.8
		c1.5,1.6,2.3,3.9,1.9,6.3c-0.5,2.9-2.8,5.4-5.7,6c-4.8,1-9.1-2.6-9.1-7.2c0-2,0.8-3.8,2-5.1C15.4,25.6,15.9,24.6,15.9,23.6z"/>
</g>
<path fill="#27C24C" d="M23.1,27.9c-0.5-0.4-0.8-1-0.8-1.6v-10c0-1.2-1-2.2-2.2-2.2s-2.2,1-2.2,2.2v10c0,0.6-0.3,1.2-0.8,1.6
	c-1.4,1-2.2,2.8-1.9,4.7c0.3,2,2,3.7,4,4c3.1,0.6,5.8-1.8,5.8-4.9C25,30.2,24.3,28.8,23.1,27.9z"/>
<circle fill="none" stroke="#27C24C" stroke-width="1.5" stroke-miterlimit="10" cx="29.3" cy="2.9" r="1.8"/>
</svg>
